<?xml version="1.0" encoding="UTF-8"?>
<svg width="360px" height="268px" viewBox="0 0 360 268" version="1.1" xmlns="http://www.w3.org/2000/svg" xmlns:xlink="http://www.w3.org/1999/xlink">
    <!-- Generator: sketchtool 46.1 (44463) - http://www.bohemiancoding.com/sketch -->
    <title>F68F892A-1E29-43DD-96AF-B8E24C12E80F</title>
    <desc>Created with sketchtool.</desc>
    <defs>
        <linearGradient x1="0%" y1="-118.951816%" x2="0%" y2="116.214489%" id="linearGradient-1">
            <stop stop-color="#05AD80" offset="0%"></stop>
            <stop stop-color="#BCFDDF" offset="100%"></stop>
        </linearGradient>
        <linearGradient x1="50%" y1="0%" x2="50%" y2="98.0389031%" id="linearGradient-2">
            <stop stop-color="#DB3232" offset="0%"></stop>
            <stop stop-color="#F7941D" offset="100%"></stop>
        </linearGradient>
        <linearGradient x1="50%" y1="0%" x2="50%" y2="100%" id="linearGradient-3">
            <stop stop-color="#0455FF" offset="0%"></stop>
            <stop stop-color="#0A8EFF" offset="100%"></stop>
        </linearGradient>
        <linearGradient x1="100%" y1="122.81901%" x2="100%" y2="-50.5696615%" id="linearGradient-4">
            <stop stop-color="#90FA09" offset="0%"></stop>
            <stop stop-color="#4A8502" offset="100%"></stop>
        </linearGradient>
        <linearGradient x1="100%" y1="-25.933689%" x2="100%" y2="107.835228%" id="linearGradient-5">
            <stop stop-color="#9401FF" offset="0%"></stop>
            <stop stop-color="#F2CCFC" offset="100%"></stop>
        </linearGradient>
        <linearGradient x1="50%" y1="0%" x2="50%" y2="100%" id="linearGradient-6">
            <stop stop-color="#F7941D" offset="0%"></stop>
            <stop stop-color="#FDCF96" offset="100%"></stop>
        </linearGradient>
    </defs>
    <g id="Page-1" stroke="none" stroke-width="1" fill="none" fill-rule="evenodd">
        <g id="Bitvisor_Mobilelanding-page-" transform="translate(0.000000, -134.000000)">
            <g id="header" transform="translate(0.000000, 81.000000)">
                <g id="Header_design_mobile" transform="translate(0.000000, 54.000000)">
                    <g id="Eth_logo" transform="translate(35.000000, 68.000000)" stroke-width="0.6" stroke="url(#linearGradient-1)" fill-rule="nonzero">
                        <polygon id="Shape" points="12.3 27.6626323 12.3 37 24 20.72"></polygon>
                        <polygon id="Shape" points="23.7 18.056 12.3 0 12.3 13.1297742"></polygon>
                        <polygon id="Shape" points="12.3 13.912 12.3 25.456 23.7 18.9559049"></polygon>
                        <polygon id="Shape" points="0.3 18.056 11.7 0 11.7 13.1297742"></polygon>
                        <polygon id="Shape" points="12 13.912 12 25.456 0.6 18.9559049"></polygon>
                        <polygon id="Shape" points="11.7 27.6626323 11.7 37 0 20.72"></polygon>
                    </g>
                    <g id="Zcash_logo" transform="translate(17.000000, 115.000000)" stroke="url(#linearGradient-2)" stroke-width="0.6" fill-rule="nonzero">
                        <path d="M6.0094518,3.87472222 L6.0094518,0 L10.8298677,0 L10.8298677,3.82638889 L16.710775,3.82638889 C16.5099244,5.67916667 17.1606805,7.4675 15.7627599,9.19138889 C13.0070888,12.5908333 10.4603025,16.1675 7.81710775,19.6636111 C7.78930155,19.7606932 7.77311965,19.8607489 7.76890359,19.9616667 L17,19.9616667 L17,25.2380556 L10.8861059,25.2380556 L10.8861059,29 L6.06568998,29 L6.06568998,25.3105556 L0,25.3105556 C0.112476371,23.4094444 -0.361531191,21.6694444 1.06049149,19.9697222 C3.88043478,16.5702778 6.45935728,12.9775 9.09451796,9.4975 C9.15020432,9.38911847 9.19591969,9.27587196 9.23109641,9.15916667 L0.803402647,9.15916667 L0.803402647,3.915 C2.48251418,3.87472222 4.17769376,3.87472222 6.0094518,3.87472222 Z" id="Shape"></path>
                    </g>
                    <g id="Omg_logo" transform="translate(35.000000, 169.000000)" stroke="url(#linearGradient-3)" stroke-width="0.6" fill-rule="nonzero">
                        <path d="M5.61702128,12 C2.51482609,12 3.79909341e-16,14.4624339 0,17.5 C-3.79909341e-16,20.5375661 2.51482609,23 5.61702128,23 C8.71921647,23 11.2340426,20.5375661 11.2340426,17.5 C11.2340426,16.0413093 10.6422509,14.6423628 9.58885511,13.6109127 C8.53545928,12.5794626 7.10674794,12 5.61702128,12 Z M5.61702128,21.4276546 C3.40168469,21.4276546 1.60579955,19.6691837 1.60579955,17.5 C1.60579955,15.3308163 3.40168469,13.5723454 5.61702128,13.5723454 C7.83235787,13.5723454 9.62824301,15.3308163 9.62824301,17.5 C9.62463446,19.6677185 7.83086143,21.4241212 5.61702128,21.4276546 L5.61702128,21.4276546 Z" id="Shape"></path>
                        <path d="M18.3829787,0 C15.2807835,-1.85997282e-16 12.7659574,2.46243388 12.7659574,5.5 C12.7659574,8.53756612 15.2807835,11 18.3829787,11 C21.4851739,11 24,8.53756612 24,5.5 C24,4.04130931 23.4082084,2.64236278 22.3548126,1.6109127 C21.3014167,0.579462622 19.8727054,-1.20625855e-15 18.3829787,0 Z M18.3829787,9.42765461 C16.1676421,9.42765461 14.371757,7.66918374 14.371757,5.5 C14.371757,3.33081626 16.1676421,1.57234539 18.3829787,1.57234539 C20.5983153,1.57234539 22.3942005,3.33081626 22.3942005,5.5 C22.3942034,7.67022434 20.5993751,9.43053201 18.3829787,9.43407235 L18.3829787,9.42765461 Z" id="Shape"></path>
                        <path d="M5.61269993,0 C2.92715521,0.0021252893 0.618879843,1.86543965 0.104529806,4.44637268 C-0.409820231,7.0273057 1.01367984,9.60366394 3.50138648,10.5942611 C5.98909312,11.5848583 8.84489936,10.7125068 10.3161136,8.51259421 C11.7873278,6.31268158 11.4622766,3.40078462 9.54045349,1.5640195 L11.2293875,1.5640195 L11.2293875,0 L5.61269993,0 Z M9.61900856,5.49329799 C9.61900856,7.65983848 7.82532309,9.41616656 5.61269993,9.41616656 C3.40007677,9.41616656 1.6063913,7.65983848 1.6063913,5.49329799 C1.6063913,3.3267575 3.40007677,1.57042941 5.61269993,1.57042941 C7.82638159,1.57396543 9.61901151,3.33212808 9.61900856,5.4997079 L9.61900856,5.49329799 Z" id="Shape"></path>
                    </g>
                    <g id="Neo_logo" transform="translate(321.000000, 117.000000)" stroke-width="0.6174" stroke="url(#linearGradient-4)" fill-rule="nonzero">
                        <polygon id="Shape" points="11.1753485 10.3534887 0 5.76923077 0 20.4080375 11.2 25"></polygon>
                        <polygon id="Shape" points="12.8 10.2293133 12.8 16.8381461 24 21.5384615 24 6.53846154"></polygon>
                        <polygon id="Shape" points="23.6 4.42375169 10.9113976 8.46153846 0 4.03778677 12.680597 0"></polygon>
                    </g>
                    <g id="Lisk_logo" transform="translate(303.000000, 161.000000)" stroke-width="0.6" stroke="url(#linearGradient-5)" fill-rule="nonzero">
                        <polygon id="Shape" points="10.7473028 9.2284415 8.37343119 5.28813559 0 19.0070395 6.71706422 26 8.92300917 26 12.48 22.1174275 8.29710092 22.1174275 5.05306422 18.234855"></polygon>
                        <polygon id="Shape" points="9.12 3.95055556 11.6107127 0 24 19.0016667 16.9376242 26 11.1125702 26 18.5123974 18.2288889"></polygon>
                    </g>
                    <path d="M327.922163,89.167142 C327.797709,87.8208784 327.011799,86.61314 325.807759,85.9178551 C325.192942,85.5977146 324.559824,85.3112721 323.911432,85.0598973 C323.987285,85.0142613 324.044175,84.959498 324.091583,84.9412436 C327.353265,83.4169994 327.182596,78.6160867 324.869077,76.9275528 C323.943285,76.2435654 322.881587,75.7496448 321.749619,75.4763263 C320.953162,75.2846549 320.156705,75.1477467 319.331802,75.0017114 C319.331802,73.6052481 319.4361,71.6976612 319.474027,70.1551626 L316.449386,70.1186537 C316.392496,71.6337707 316.345088,73.4957216 316.288198,74.8648032 L313.8609,74.8100399 C313.8609,73.4409584 313.965198,71.5790074 313.993642,70.0638905 L310.997446,70 C310.940556,71.5424986 310.893148,73.4592128 310.836258,74.8191671 L304.720604,74.6457501 C304.720604,75.7136338 304.644751,76.7084997 304.625788,77.7490017 C305.061943,77.7490017 305.45069,77.7490017 305.810992,77.803765 C306.171294,77.8585282 306.588486,77.803765 306.948788,77.849401 C307.398919,77.8404594 307.830723,78.0209103 308.131304,78.3435743 C308.431885,78.6662383 308.571358,79.0990347 308.513258,79.5288078 C308.361552,83.6908157 308.209846,87.8528237 308.086584,92.0057045 C308.086584,92.9184256 307.640948,93.2652596 306.711747,93.2470051 L304.701641,93.2470051 C304.4646,94.3605248 304.237041,95.4740445 304,96.6423274 L310.115654,96.8522533 C310.115654,98.3399886 310.011356,100.229321 309.97343,101.799201 L312.998071,101.863092 C313.064442,100.293212 313.102369,98.4586423 313.159259,96.9891614 L315.586557,97.1169424 C315.586557,98.6046777 315.482259,100.420993 315.453814,101.93611 L318.478455,102 C318.544827,100.43012 318.582753,98.5955505 318.639643,97.1534512 C318.743941,97.1534512 318.819794,97.1534512 318.895647,97.1534512 C320.346337,96.9617798 321.825472,96.8705077 323.228754,96.578437 C325.049702,96.2467419 326.588677,95.0820173 327.353265,93.456931 C327.929153,92.0994481 328.125305,90.6203582 327.922163,89.167142 Z M313.71144,78.1211522 C315.550047,78.1211522 317.324302,78.0500614 318.960662,78.8142881 C319.974567,79.1906415 320.600503,80.1784119 320.486706,81.2224908 C320.419184,82.3069895 319.616527,83.2170175 318.519397,83.4529664 C316.879061,83.8470687 315.178243,83.9494473 313.5,83.7551025 C313.573544,81.951172 313.637896,80.1116962 313.71144,78.1211522 Z M320.182837,93.1927919 C318.521585,93.7623756 316.759804,93.9819174 315.009028,93.8375186 L313.5,93.7814554 L313.724948,87.1940299 C315.993176,87.2407492 318.252031,87.1192789 320.342175,88.1284165 C321.376221,88.5679085 322.033891,89.5948151 321.998651,90.7148905 C321.96341,91.8349659 321.242478,92.818766 320.182837,93.1927919 L320.182837,93.1927919 Z" id="bTC_logo" stroke="url(#linearGradient-6)" stroke-width="0.6" fill-rule="nonzero" transform="translate(316.000000, 86.000000) rotate(-1.000000) translate(-316.000000, -86.000000) "></path>
                    <path d="M0,1.42108547e-14 C69.3553875,13.3333333 130.730403,20 184.125047,20 C237.519691,20 296.144676,13.3333333 360,3.30846461e-14" id="Path-2" stroke="#979797" stroke-width="0.5" stroke-dasharray="10"></path>
                    <path d="M0,246 C69.3553875,259.333333 130.730403,266 184.125047,266 C237.519691,266 296.144676,259.333333 360,246" id="Path-2-Copy" stroke="#979797" stroke-width="0.5" stroke-dasharray="10" transform="translate(180.000000, 256.000000) scale(1, -1) translate(-180.000000, -256.000000) "></path>
                    <path d="M0,21 C68.8283011,28.3333333 129.939774,32 183.334418,32 C236.729062,32 295.617589,28.3333333 360,21" id="Path-2-Copy-3" stroke="#979797" stroke-width="0.5" transform="translate(180.000000, 26.500000) rotate(360.000000) translate(-180.000000, -26.500000) "></path>
                    <path d="M0,234 C68.8283011,241.333333 129.939774,245 183.334418,245 C236.729062,245 295.617589,241.333333 360,234" id="Path-2-Copy-4" stroke="#979797" stroke-width="0.5" transform="translate(180.000000, 239.500000) scale(1, -1) rotate(360.000000) translate(-180.000000, -239.500000) "></path>
                </g>
            </g>
        </g>
    </g>
</svg>