<?xml version="1.0" encoding="UTF-8"?>
<svg width="1366px" height="371px" viewBox="0 0 1366 371" version="1.1" xmlns="http://www.w3.org/2000/svg" xmlns:xlink="http://www.w3.org/1999/xlink">
    <!-- Generator: sketchtool 46.1 (44463) - http://www.bohemiancoding.com/sketch -->
    <title>B6B7C682-FF41-40C9-A3CB-AFE55BFC543E@2x</title>
    <desc>Created with sketchtool.</desc>
    <defs>
        <linearGradient x1="0%" y1="-118.951816%" x2="0%" y2="116.214489%" id="linearGradient-1">
            <stop stop-color="#05AD80" offset="0%"></stop>
            <stop stop-color="#BCFDDF" offset="100%"></stop>
        </linearGradient>
        <linearGradient x1="50%" y1="0%" x2="50%" y2="98.0389031%" id="linearGradient-2">
            <stop stop-color="#DB3232" offset="0%"></stop>
            <stop stop-color="#F7941D" offset="100%"></stop>
        </linearGradient>
        <linearGradient x1="50%" y1="0%" x2="50%" y2="100%" id="linearGradient-3">
            <stop stop-color="#0455FF" offset="0%"></stop>
            <stop stop-color="#0A8EFF" offset="100%"></stop>
        </linearGradient>
        <linearGradient x1="100%" y1="122.81901%" x2="100%" y2="-50.5696615%" id="linearGradient-4">
            <stop stop-color="#90FA09" offset="0%"></stop>
            <stop stop-color="#4A8502" offset="100%"></stop>
        </linearGradient>
        <linearGradient x1="100%" y1="-25.933689%" x2="100%" y2="107.835228%" id="linearGradient-5">
            <stop stop-color="#9401FF" offset="0%"></stop>
            <stop stop-color="#F2CCFC" offset="100%"></stop>
        </linearGradient>
        <linearGradient x1="50%" y1="0%" x2="50%" y2="100%" id="linearGradient-6">
            <stop stop-color="#F7941D" offset="0%"></stop>
            <stop stop-color="#FDCF96" offset="100%"></stop>
        </linearGradient>
    </defs>
    <g id="Page-1" stroke="none" stroke-width="1" fill="none" fill-rule="evenodd">
        <g id="Bitvisor_Landing-page-UI" transform="translate(0.000000, -183.000000)">
            <g id="Header" transform="translate(0.000000, 158.000000)">
                <g id="Header_design" transform="translate(0.000000, 26.000000)">
                    <path d="M0,0 C263.165165,62.6666667 496.049253,94 698.652263,94 C901.255273,94 1123.70452,62.6666667 1366,3.91353616e-15" id="Path-2" stroke="#979797" stroke-width="0.5" stroke-dasharray="10"></path>
                    <path d="M0,275 C263.165165,337.666667 496.049253,369 698.652263,369 C901.255273,369 1123.70452,337.666667 1366,275" id="Path-2-Copy" stroke="#979797" stroke-width="0.5" stroke-dasharray="10" transform="translate(683.000000, 322.000000) scale(1, -1) translate(-683.000000, -322.000000) "></path>
                    <path d="M0,43 C261.165165,91 493.049253,115 695.652263,115 C898.255273,115 1121.70452,94.5598958 1366,53.6796875" id="Path-2-Copy-3" stroke="#979797" stroke-width="0.5" transform="translate(683.000000, 79.000000) rotate(360.000000) translate(-683.000000, -79.000000) "></path>
                    <path d="M0,254 C261.165165,302 493.049253,326 695.652263,326 C898.255273,326 1121.70452,305.559896 1366,264.679688" id="Path-2-Copy-4" stroke="#979797" stroke-width="0.5" transform="translate(683.000000, 290.000000) scale(1, -1) rotate(360.000000) translate(-683.000000, -290.000000) "></path>
                    <g id="Eth_logo" transform="translate(170.000000, 135.000000)" stroke-width="0.7" stroke="url(#linearGradient-1)" fill-rule="nonzero">
                        <polygon id="Shape" points="28.7 65.7922065 28.7 88 56 49.28"></polygon>
                        <polygon id="Shape" points="55.3 42.944 28.7 0 28.7 31.2275712"></polygon>
                        <polygon id="Shape" points="28.7 33.088 28.7 60.544 55.3 45.0843144"></polygon>
                        <polygon id="Shape" points="0.7 42.944 27.3 0 27.3 31.2275712"></polygon>
                        <polygon id="Shape" points="28 33.088 28 60.544 1.4 45.0843144"></polygon>
                        <polygon id="Shape" points="27.3 65.7922065 27.3 88 0 49.28"></polygon>
                    </g>
                    <g id="Zcash_logo" transform="translate(270.000000, 112.000000)" stroke="url(#linearGradient-2)" stroke-width="0.7" fill-rule="nonzero">
                        <path d="M10.9584121,7.215 L10.9584121,0 L19.7485822,0 L19.7485822,7.125 L30.4725898,7.125 C30.1063327,10.575 31.2930057,13.905 28.7438563,17.115 C23.7188091,23.445 19.0746692,30.105 14.2547259,36.615 C14.2040205,36.7957735 14.1745123,36.9820842 14.1668242,37.17 L31,37.17 L31,46.995 L19.8511342,46.995 L19.8511342,54 L11.0609641,54 L11.0609641,47.13 L0,47.13 C0.20510397,43.59 -0.65926276,40.35 1.93383743,37.185 C7.07608696,30.855 11.778828,24.165 16.584121,17.685 C16.6856667,17.4831861 16.76903,17.2723133 16.8331758,17.055 L1.46502836,17.055 L1.46502836,7.29 C4.52693762,7.215 7.61814745,7.215 10.9584121,7.215 Z" id="Shape"></path>
                    </g>
                    <g id="Omg_logo" transform="translate(270.000000, 210.000000)" stroke="url(#linearGradient-3)" stroke-width="0.7" fill-rule="nonzero">
                        <path d="M7.72340426,16.6956522 C3.45788587,16.6956522 5.22375344e-16,20.1216471 0,24.3478261 C-5.22375344e-16,28.574005 3.45788587,32 7.72340426,32 C11.9889226,32 15.4468085,28.574005 15.4468085,24.3478261 C15.4468085,22.3183434 14.633095,20.371983 13.1846758,18.936922 C11.7362565,17.501861 9.77177842,16.6956522 7.72340426,16.6956522 Z M7.72340426,29.812389 C4.67731645,29.812389 2.20797438,27.3658209 2.20797438,24.3478261 C2.20797438,21.3298313 4.67731645,18.8832632 7.72340426,18.8832632 C10.7694921,18.8832632 13.2388341,21.3298313 13.2388341,24.3478261 C13.2338724,27.3637822 10.7674345,29.807473 7.72340426,29.812389 L7.72340426,29.812389 Z" id="Shape"></path>
                        <path d="M25.2765957,0 C21.0110774,-2.58778827e-16 17.5531915,3.42599496 17.5531915,7.65217391 C17.5531915,11.8783529 21.0110774,15.3043478 25.2765957,15.3043478 C29.5421141,15.3043478 33,11.8783529 33,7.65217391 C33,5.62269121 32.1862865,3.67633083 30.7378673,2.24126985 C29.289448,0.806208865 27.3249699,-1.67827277e-15 25.2765957,0 Z M25.2765957,13.1167368 C22.2305079,13.1167368 19.7611659,10.6701687 19.7611659,7.65217391 C19.7611659,4.63417914 22.2305079,2.18761098 25.2765957,2.18761098 C28.3226836,2.18761098 30.7920256,4.63417914 30.7920256,7.65217391 C30.7920297,10.6716165 28.3241408,13.1207402 25.2765957,13.1256659 L25.2765957,13.1167368 Z" id="Shape"></path>
                        <path d="M7.71746241,0 C4.02483841,0.00295692425 0.850959784,2.5953943 0.143728483,6.18625763 C-0.563502818,9.77712097 1.39380978,13.3616194 4.81440641,14.7398416 C8.23500304,16.1180638 12.1617366,14.9043573 14.1846562,11.8436093 C16.2075757,8.78286133 15.7606304,4.73152643 13.1181235,2.17602713 L15.4404078,2.17602713 L15.4404078,0 L7.71746241,0 Z M13.2261368,7.64284937 C13.2261368,10.6571666 10.7598192,13.1007535 7.71746241,13.1007535 C4.67510556,13.1007535 2.20878804,10.6571666 2.20878804,7.64284937 C2.20878804,4.62853217 4.67510556,2.18494527 7.71746241,2.18494527 C10.7612747,2.18986495 13.2261408,4.63600429 13.2261368,7.65176752 L13.2261368,7.64284937 Z" id="Shape"></path>
                    </g>
                    <g id="Neo_logo" transform="translate(1059.000000, 170.000000)" stroke-width="0.735" stroke="url(#linearGradient-4)" fill-rule="nonzero">
                        <polygon id="Shape" points="19.5568599 19.0504191 0 10.6153846 0 37.550789 19.6 46"></polygon>
                        <polygon id="Shape" points="22.4 18.8219364 22.4 30.9821888 42 39.6307692 42 12.0307692"></polygon>
                        <polygon id="Shape" points="41.3 8.1397031 19.0949457 15.5692308 0 7.42952767 22.1910448 0"></polygon>
                    </g>
                    <g id="Lisk_logo" transform="translate(1119.000000, 224.000000)" stroke-width="0.7" stroke="url(#linearGradient-5)" fill-rule="nonzero">
                        <polygon id="Shape" points="15.6731498 14.5525424 12.2112538 8.33898305 0 29.9726392 9.79571865 41 13.0127217 41 18.2 34.8774818 12.0999388 34.8774818 7.36905199 28.7549637"></polygon>
                        <polygon id="Shape" points="13.3 6.22972222 16.9322894 0 35 29.9641667 24.7007019 41 16.2058315 41 26.9972462 28.7455556"></polygon>
                    </g>
                    <path d="M1149.86054,136.938391 C1149.63756,134.414147 1148.22947,132.149638 1146.07223,130.845978 C1144.97069,130.245715 1143.83635,129.708635 1142.67465,129.237307 C1142.81055,129.15174 1142.91248,129.049059 1142.99742,129.014832 C1148.84127,126.156874 1148.53548,117.155163 1144.39043,113.989161 C1142.73172,112.706685 1140.82951,111.780584 1138.8014,111.268112 C1137.37442,110.908728 1135.94743,110.652025 1134.46948,110.378209 C1134.46948,107.75984 1134.65635,104.183115 1134.7243,101.29093 L1129.30515,101.222476 C1129.20322,104.06332 1129.11828,107.554478 1129.01635,110.121506 L1124.66745,110.018825 C1124.66745,107.451797 1124.85431,103.960639 1124.90528,101.119795 L1119.53709,101 C1119.43516,103.892185 1119.35022,107.486024 1119.2483,110.035938 L1108.29108,109.710782 C1108.29108,111.713063 1108.15518,113.578437 1108.1212,115.529378 C1108.90265,115.529378 1109.59915,115.529378 1110.24469,115.632059 C1110.89024,115.73474 1111.6377,115.632059 1112.28325,115.717627 C1113.08973,115.700861 1113.86338,116.039207 1114.40192,116.644202 C1114.94046,117.249197 1115.19035,118.06069 1115.08625,118.866515 C1114.81445,126.67028 1114.54264,134.474044 1114.3218,142.260696 C1114.3218,143.972048 1113.52336,144.622362 1111.85855,144.588135 L1108.25711,144.588135 C1107.83241,146.675984 1107.4247,148.763833 1107,150.954364 L1117.95721,151.347975 C1117.95721,154.137479 1117.77035,157.679977 1117.70239,160.623503 L1123.12154,160.743297 C1123.24046,157.799772 1123.30841,154.359954 1123.41034,151.604678 L1127.75925,151.844267 C1127.75925,154.633771 1127.57238,158.039361 1127.52142,160.880205 L1132.94057,161 C1133.05948,158.056475 1133.12743,154.616657 1133.22936,151.912721 C1133.41623,151.912721 1133.55213,151.912721 1133.68803,151.912721 C1136.28719,151.553337 1138.9373,151.382202 1141.45152,150.834569 C1144.71405,150.212641 1147.47138,148.028782 1148.84127,144.981746 C1149.87307,142.436465 1150.22451,139.663172 1149.86054,136.938391 Z M1124.39966,116.22716 C1127.69383,116.22716 1130.87271,116.093865 1133.80452,117.52679 C1135.6211,118.232453 1136.74257,120.084522 1136.53868,122.04217 C1136.41771,124.075605 1134.97961,125.781908 1133.01392,126.224312 C1130.07499,126.963254 1127.02769,127.155214 1124.02083,126.790817 C1124.1526,123.408448 1124.2679,119.95943 1124.39966,116.22716 Z M1135.99425,144.486485 C1133.01784,145.554454 1129.86132,145.966095 1126.72451,145.695347 L1124.02083,145.590229 L1124.42387,133.238806 C1128.48777,133.326405 1132.53489,133.098648 1136.27973,134.990781 C1138.1324,135.814828 1139.31072,137.740278 1139.24758,139.84042 C1139.18444,141.940561 1137.89277,143.785186 1135.99425,144.486485 L1135.99425,144.486485 Z" id="bTC_logo" stroke="url(#linearGradient-6)" stroke-width="0.5" fill-rule="nonzero" transform="translate(1128.500000, 131.000000) rotate(-1.000000) translate(-1128.500000, -131.000000) "></path>
                </g>
            </g>
        </g>
    </g>
</svg>